<svg width="18" height="19" viewBox="0 0 18 19" fill="none" xmlns="http://www.w3.org/2000/svg">
<path d="M0.0214844 8.05469C0.0214844 7.07031 0.206055 6.14746 0.575195 5.28613C0.950195 4.41895 1.46582 3.65723 2.12207 3.00098C2.77832 2.33887 3.53711 1.82324 4.39844 1.4541C5.26562 1.08496 6.19141 0.900391 7.17578 0.900391C8.16602 0.900391 9.0918 1.08496 9.95312 1.4541C10.8203 1.82324 11.582 2.33887 12.2383 3.00098C12.8945 3.65723 13.4072 4.41895 13.7764 5.28613C14.1514 6.14746 14.3389 7.07031 14.3389 8.05469C14.3389 8.82812 14.2188 9.56348 13.9785 10.2607C13.7441 10.958 13.4189 11.5938 13.0029 12.168L17.0107 16.1934C17.1338 16.3105 17.2246 16.4482 17.2832 16.6064C17.3477 16.7646 17.3799 16.9316 17.3799 17.1074C17.3799 17.3535 17.3242 17.5762 17.2129 17.7754C17.1016 17.9746 16.9492 18.1299 16.7559 18.2412C16.5625 18.3584 16.3398 18.417 16.0879 18.417C15.9121 18.417 15.7422 18.3848 15.5781 18.3203C15.4199 18.2617 15.2764 18.168 15.1475 18.0391L11.1133 14.0049C10.5508 14.3799 9.93555 14.6758 9.26758 14.8926C8.60547 15.1035 7.9082 15.209 7.17578 15.209C6.19141 15.209 5.26562 15.0244 4.39844 14.6553C3.53711 14.2861 2.77832 13.7734 2.12207 13.1172C1.46582 12.4609 0.950195 11.7021 0.575195 10.8408C0.206055 9.97363 0.0214844 9.04492 0.0214844 8.05469ZM1.89355 8.05469C1.89355 8.78711 2.02832 9.47266 2.29785 10.1113C2.57324 10.75 2.9541 11.3125 3.44043 11.7988C3.92676 12.2793 4.48926 12.6572 5.12793 12.9326C5.7666 13.208 6.44922 13.3457 7.17578 13.3457C7.9082 13.3457 8.59375 13.208 9.23242 12.9326C9.87109 12.6572 10.4307 12.2793 10.9111 11.7988C11.3975 11.3125 11.7783 10.75 12.0537 10.1113C12.3291 9.47266 12.4668 8.78711 12.4668 8.05469C12.4668 7.32812 12.3291 6.64551 12.0537 6.00684C11.7783 5.36816 11.3975 4.80566 10.9111 4.31934C10.4307 3.83301 9.87109 3.45508 9.23242 3.18555C8.59375 2.91016 7.9082 2.77246 7.17578 2.77246C6.44922 2.77246 5.7666 2.91016 5.12793 3.18555C4.48926 3.45508 3.92676 3.83301 3.44043 4.31934C2.9541 4.80566 2.57324 5.36816 2.29785 6.00684C2.02832 6.64551 1.89355 7.32812 1.89355 8.05469Z" fill="white"/>
</svg>
