<svg width="17" height="19" viewBox="0 0 17 19" fill="none" xmlns="http://www.w3.org/2000/svg">
<path d="M0.241211 16.0156V6.92773C0.241211 5.99023 0.484375 5.28125 0.970703 4.80078C1.45703 4.31445 2.1748 4.07129 3.12402 4.07129H4.37207C4.38965 3.41504 4.56836 2.81445 4.9082 2.26953C5.25391 1.72461 5.71094 1.29102 6.2793 0.96875C6.85352 0.640625 7.48926 0.476562 8.18652 0.476562C8.87793 0.476562 9.50781 0.640625 10.0762 0.96875C10.6504 1.29102 11.1104 1.72461 11.4561 2.26953C11.8018 2.81445 11.9805 3.41504 11.9922 4.07129H13.249C14.1924 4.07129 14.9072 4.31445 15.3936 4.80078C15.8857 5.28125 16.1318 5.99023 16.1318 6.92773V16.0156C16.1318 16.9531 15.8975 17.6621 15.4287 18.1426C14.96 18.6289 14.3066 18.8721 13.4688 18.8721H3.12402C2.1748 18.8721 1.45703 18.6289 0.970703 18.1426C0.484375 17.6621 0.241211 16.9531 0.241211 16.0156ZM1.97266 15.8662C1.97266 16.2939 2.07812 16.6133 2.28906 16.8242C2.50586 17.0352 2.81934 17.1406 3.22949 17.1406H13.3545C13.6533 17.1406 13.9023 17.0352 14.1016 16.8242C14.3008 16.6133 14.4004 16.2939 14.4004 15.8662V7.07715C14.4004 6.64941 14.2891 6.33008 14.0664 6.11914C13.8496 5.9082 13.5391 5.80273 13.1348 5.80273H3.22949C2.81934 5.80273 2.50586 5.9082 2.28906 6.11914C2.07812 6.33008 1.97266 6.64941 1.97266 7.07715V15.8662ZM6.05078 4.07129H10.3135C10.3076 3.69043 10.2109 3.34473 10.0234 3.03418C9.83594 2.72363 9.58105 2.47754 9.25879 2.2959C8.94238 2.1084 8.58496 2.01465 8.18652 2.01465C7.78223 2.01465 7.42188 2.1084 7.10547 2.2959C6.78906 2.47754 6.53418 2.72363 6.34082 3.03418C6.15332 3.34473 6.05664 3.69043 6.05078 4.07129Z" fill="white"/>
</svg>
