<svg width="19" height="19" viewBox="0 0 19 19" fill="none" xmlns="http://www.w3.org/2000/svg">
<path d="M9.65234 18.7334C8.41016 18.7334 7.24121 18.4961 6.14551 18.0215C5.0498 17.5527 4.08301 16.8994 3.24512 16.0615C2.41309 15.2236 1.75977 14.2568 1.28516 13.1611C0.810547 12.0654 0.573242 10.8965 0.573242 9.6543C0.573242 8.41211 0.810547 7.24316 1.28516 6.14746C1.75977 5.05176 2.41309 4.08789 3.24512 3.25586C4.08301 2.41797 5.04688 1.76172 6.13672 1.28711C7.23242 0.8125 8.40137 0.575195 9.64355 0.575195C10.8916 0.575195 12.0635 0.8125 13.1592 1.28711C14.2549 1.76172 15.2217 2.41797 16.0596 3.25586C16.8975 4.08789 17.5537 5.05176 18.0283 6.14746C18.5029 7.24316 18.7402 8.41211 18.7402 9.6543C18.7402 10.8965 18.5029 12.0654 18.0283 13.1611C17.5537 14.2568 16.8975 15.2236 16.0596 16.0615C15.2217 16.8994 14.2549 17.5527 13.1592 18.0215C12.0635 18.4961 10.8945 18.7334 9.65234 18.7334ZM9.65234 16.9404C10.666 16.9404 11.6123 16.7529 12.4912 16.3779C13.3701 16.0029 14.1436 15.4814 14.8115 14.8135C15.4795 14.1455 16.001 13.3721 16.376 12.4932C16.751 11.6143 16.9385 10.668 16.9385 9.6543C16.9385 8.64648 16.751 7.70312 16.376 6.82422C16.001 5.93945 15.4795 5.16309 14.8115 4.49512C14.1436 3.82715 13.3672 3.30566 12.4824 2.93066C11.6035 2.55566 10.6572 2.36816 9.64355 2.36816C8.63574 2.36816 7.68945 2.55566 6.80469 2.93066C5.92578 3.30566 5.15527 3.82715 4.49316 4.49512C3.83105 5.16309 3.3125 5.93945 2.9375 6.82422C2.5625 7.70312 2.375 8.64648 2.375 9.6543C2.375 10.668 2.5625 11.6143 2.9375 12.4932C3.3125 13.3721 3.83105 14.1455 4.49316 14.8135C5.16113 15.4814 5.93457 16.0029 6.81348 16.3779C7.69824 16.7529 8.64453 16.9404 9.65234 16.9404ZM5.75879 14.04C5.56543 14.04 5.42188 13.9844 5.32812 13.873C5.23438 13.7559 5.1875 13.6094 5.1875 13.4336C5.1875 13.1934 5.27539 12.8857 5.45117 12.5107C5.63281 12.1357 5.90527 11.7607 6.26855 11.3857C6.6377 11.0049 7.10059 10.6855 7.65723 10.4277C8.21973 10.1641 8.88184 10.0322 9.64355 10.0322C10.4111 10.0322 11.0732 10.1641 11.6299 10.4277C12.1924 10.6855 12.6553 11.0049 13.0186 11.3857C13.3818 11.7607 13.6543 12.1357 13.8359 12.5107C14.0176 12.8857 14.1084 13.1934 14.1084 13.4336C14.1084 13.6094 14.0615 13.7559 13.9678 13.873C13.874 13.9844 13.7305 14.04 13.5371 14.04H5.75879ZM9.64355 9.34668C9.2334 9.34668 8.8584 9.24121 8.51855 9.03027C8.18457 8.81348 7.91504 8.52344 7.70996 8.16016C7.51074 7.79102 7.41113 7.375 7.41113 6.91211C7.41113 6.47852 7.51074 6.08008 7.70996 5.7168C7.91504 5.35352 8.18457 5.06348 8.51855 4.84668C8.8584 4.62988 9.2334 4.52148 9.64355 4.52148C10.0537 4.52148 10.4287 4.62988 10.7686 4.84668C11.1084 5.06348 11.3779 5.35352 11.5771 5.7168C11.7764 6.08008 11.876 6.47852 11.876 6.91211C11.876 7.375 11.7764 7.79102 11.5771 8.16016C11.3779 8.52344 11.1084 8.81348 10.7686 9.03027C10.4287 9.24121 10.0537 9.34668 9.64355 9.34668Z" fill="white"/>
</svg>
