<svg width="21" height="26" viewBox="0 0 21 26" fill="none" xmlns="http://www.w3.org/2000/svg">
<path d="M14.7656 6.79688C14.9948 6.79688 15.3854 6.83333 15.9375 6.90625C16.4896 6.97917 17.0938 7.1875 17.75 7.53125C18.4167 7.86458 19.0208 8.42188 19.5625 9.20312C19.5312 9.23438 19.3802 9.34896 19.1094 9.54688C18.8385 9.73438 18.5365 10.0156 18.2031 10.3906C17.8698 10.7552 17.5781 11.224 17.3281 11.7969C17.0781 12.3594 16.9531 13.0312 16.9531 13.8125C16.9531 14.7083 17.1094 15.4688 17.4219 16.0938C17.7448 16.7188 18.1146 17.224 18.5312 17.6094C18.9583 17.9844 19.3333 18.2604 19.6562 18.4375C19.9896 18.6146 20.1667 18.7083 20.1875 18.7188C20.1771 18.7604 20.0417 19.1302 19.7812 19.8281C19.5312 20.526 19.1146 21.3021 18.5312 22.1562C18.0208 22.8958 17.4688 23.5781 16.875 24.2031C16.2917 24.8281 15.5885 25.1406 14.7656 25.1406C14.2135 25.1406 13.7604 25.0625 13.4062 24.9062C13.0521 24.7396 12.6875 24.5781 12.3125 24.4219C11.9375 24.2552 11.4323 24.1719 10.7969 24.1719C10.1823 24.1719 9.66667 24.2552 9.25 24.4219C8.84375 24.5885 8.45312 24.7552 8.07812 24.9219C7.71354 25.0885 7.28125 25.1719 6.78125 25.1719C6.02083 25.1719 5.35417 24.8698 4.78125 24.2656C4.20833 23.6615 3.61979 22.9375 3.01562 22.0938C2.31771 21.0938 1.71875 19.875 1.21875 18.4375C0.729167 16.9896 0.484375 15.5312 0.484375 14.0625C0.484375 12.4896 0.78125 11.1719 1.375 10.1094C1.96875 9.03646 2.72917 8.22917 3.65625 7.6875C4.59375 7.13542 5.5625 6.85938 6.5625 6.85938C7.09375 6.85938 7.59375 6.94792 8.0625 7.125C8.53125 7.29167 8.96875 7.46354 9.375 7.64062C9.79167 7.81771 10.1667 7.90625 10.5 7.90625C10.8229 7.90625 11.1979 7.8125 11.625 7.625C12.0521 7.4375 12.5312 7.25521 13.0625 7.07812C13.5938 6.89062 14.1615 6.79688 14.7656 6.79688ZM13.9062 4.8125C13.5 5.30208 12.9896 5.71354 12.375 6.04688C11.7604 6.36979 11.1771 6.53125 10.625 6.53125C10.5104 6.53125 10.401 6.52083 10.2969 6.5C10.2865 6.46875 10.276 6.41146 10.2656 6.32812C10.2552 6.24479 10.25 6.15625 10.25 6.0625C10.25 5.4375 10.3854 4.83333 10.6562 4.25C10.9271 3.65625 11.2344 3.16667 11.5781 2.78125C12.0156 2.26042 12.5677 1.82812 13.2344 1.48438C13.901 1.14062 14.5365 0.958333 15.1406 0.9375C15.1719 1.07292 15.1875 1.23438 15.1875 1.42188C15.1875 2.04688 15.0677 2.65625 14.8281 3.25C14.5885 3.83333 14.2812 4.35417 13.9062 4.8125Z" fill="white"/>
</svg>
